PathFileType	4	(X/Y/Z)	/Users/niels/Desktop/University/Third Semester/Perception and Action/Exam/Gymnastics Motion Tracking/Code for Gym Tracking/Analyzed Data/Webcam_Backflip/id1_3_trajectory_Sports2D/id1_3_trajectory_Sports2D_px_person00.trc
DataRate	CameraRate	NumFrames	NumMarkers	Units	OrigDataRate	OrigDataStartFrame	OrigNumFrames
29.71698113207547	29.71698113207547	8	22	m	29.71698113207547	79	106
Frame#	Time	Hip			RHip			RKnee			RAnkle			RBigToe			RSmallToe			RHeel			LHip			LKnee			LAnkle			LBigToe			LSmallToe			LHeel			Neck			Head			Nose			RShoulder			RElbow			RWrist			LShoulder			LElbow			LWrist		
		X1	Y1	Z1	X2	Y2	Z2	X3	Y3	Z3	X4	Y4	Z4	X5	Y5	Z5	X6	Y6	Z6	X7	Y7	Z7	X8	Y8	Z8	X9	Y9	Z9	X10	Y10	Z10	X11	Y11	Z11	X12	Y12	Z12	X13	Y13	Z13	X14	Y14	Z14	X15	Y15	Z15	X16	Y16	Z16	X17	Y17	Z17	X18	Y18	Z18	X19	Y19	Z19	X20	Y20	Z20	X21	Y21	Z21	X22	Y22	Z22
79	2.658412698412698	0.9450560846452624	-0.6257451449681745	0.0	0.930605403142929	-0.6298624776166488	0.0	1.0352191284193104	-0.7092656261821835	0.0	0.9652863146125291	-0.8142958347648916	0.0	1.0017644564749832	-0.846742020930671	0.0	0.985322434239906	-0.8475372266643484	0.0	0.9404568958035572	-0.8233596003179114	0.0	0.9695694884930783	-0.6272775006803135	0.0	1.0586690643294545	-0.6996202541266663	0.0	0.9827265755982056	-0.8001207993865038	0.0	1.005982074150453	-0.8237862563263135	0.0	1.0050817509533099	-0.8315852454776806	0.0	0.9691530032793423	-0.8125323826868917	0.0	1.0305848526094834	-0.4902170346180629	0.0	1.0923523200488823	-0.4340913069381269	0.0	1.0785791098782298	-0.48753793543090296	0.0	1.0004766659787014	-0.48899135297207447	0.0	1.0461628127594977	-0.5354474966570113	0.0	1.1243792624461524	-0.5496098939733747	0.0	1.0412261698644762	-0.5108636915227005	0.0	1.0950599898283546	-0.5636577959946719	0.0	1.1596149919766334	-0.5823015923103367	0.0
80	2.692063492063492	0.9485237184974478	-0.6167791160602648	0.0	0.9346855167983659	-0.619664049652856	0.0	1.0338246294284998	-0.7082403010195634	0.0	0.9487603868801765	-0.8151932484041263	0.0	0.9828247736408289	-0.8565129441930991	0.0	0.9928434096626118	-0.8518250658716973	0.0	0.946495189169845	-0.8300841344959204	0.0	0.9719217352891699	-0.6187158375420498	0.0	1.0551308830385813	-0.7011152820549942	0.0	0.9863569703561674	-0.8071256630370203	0.0	1.0237658777658203	-0.8458133925256478	0.0	1.0051001350751787	-0.8400072905698551	0.0	0.9465398328610004	-0.8150232011772253	0.0	1.0311793412774795	-0.47748045023933394	0.0	1.0922931092057273	-0.4189682795212168	0.0	1.0618447045439845	-0.4581875021202819	0.0	0.9873893275900923	-0.46543235330823646	0.0	1.0402404180219278	-0.5238883718906099	0.0	1.1148075924659886	-0.5402882362190454	0.0	1.0430490958789884	-0.5011820226420767	0.0	1.0928448047188353	-0.5566429618445858	0.0	1.1583053624003599	-0.5781823141078415	0.0
81	2.7257142857142855	0.9527410691325613	-0.6102059137627739	0.0	0.9393467409004255	-0.6117845933378007	0.0	1.0311877627821044	-0.7101566350263172	0.0	0.9497156584300285	-0.8227767429124286	0.0	0.9856676209383176	-0.864612593664575	0.0	0.9998776856378346	-0.8594257143045618	0.0	0.9527875780956069	-0.8402437574881911	0.0	0.9749200472742844	-0.612298953100607	0.0	1.0496863480732515	-0.7057503284511024	0.0	0.9887183818912599	-0.8174732358114558	0.0	1.0328872622823966	-0.8606750036460002	0.0	1.0110971791277366	-0.8498292488763137	0.0	0.9435592319143301	-0.8254740567226466	0.0	1.031862029314292	-0.46650032257439067	0.0	1.092551078180468	-0.4056177109911237	0.0	1.0601610780842041	-0.4426072218762939	0.0	0.9857839670421052	-0.453214249193264	0.0	1.0348429894419482	-0.5141965961522348	0.0	1.1062323996678058	-0.5326396996255798	0.0	1.0446236581722521	-0.4923323692498813	0.0	1.0916750080607154	-0.5499233925324947	0.0	1.1585652650198972	-0.5732284774597635	0.0
82	2.759365079365079	0.9575140417412736	-0.6068334197263009	0.0	0.9442333935416681	-0.6072199154216954	0.0	1.027694867946375	-0.7146298939005994	0.0	0.9581062804034635	-0.8338307668879865	0.0	0.9971602114962483	-0.8725973299607107	0.0	1.0053396192831379	-0.8691153478982135	0.0	0.958103715218106	-0.8520355607940415	0.0	0.9785986194579707	-0.6087541608087532	0.0	1.0437124191422367	-0.7123975845791637	0.0	0.9898397725235044	-0.8292120934372902	0.0	1.0359861679002285	-0.8710836135781538	0.0	1.0183957913811972	-0.8600003442195561	0.0	0.9495170708281004	-0.8394342949315737	0.0	1.0324639105884414	-0.4581698171822238	0.0	1.0926045060313399	-0.39499180242188353	0.0	1.065201630272964	-0.43518264314211175	0.0	0.9890839787647174	-0.4480555312791684	0.0	1.0297659379015929	-0.5073173374589826	0.0	1.0987273108784843	-0.5274979456806655	0.0	1.0458608168057453	-0.485151338498328	0.0	1.0914241325829772	-0.5444146226465603	0.0	1.1600791311614833	-0.5682380952923449	0.0
83	2.7930158730158725	0.9626166793056129	-0.6066828531933691	0.0	0.9491571610464028	-0.6061089912004004	0.0	1.023701076621865	-0.7208549470004458	0.0	0.9673146110318182	-0.8456337636562593	0.0	1.0090751434297418	-0.8806842669893933	0.0	1.0086130517071186	-0.8793932159214856	0.0	0.9617476118644493	-0.8638206293082525	0.0	0.9828221160780332	-0.6080859612962677	0.0	1.038339872199161	-0.7198303305375452	0.0	0.9900250126445945	-0.8406308020093511	0.0	1.0355725523845978	-0.8788870000101966	0.0	1.0244573854612238	-0.8694988867452955	0.0	0.9577295447485779	-0.8536337755070198	0.0	1.03287464079414	-0.45262145039444784	0.0	1.0920488773236385	-0.3871986484601915	0.0	1.0715246311025344	-0.4319417001338305	0.0	0.9932281744577102	-0.4469186631860254	0.0	1.0249416507538833	-0.5036362592379204	0.0	1.0922175218130867	-0.5253263087046003	0.0	1.04668453453257	-0.4798685372656824	0.0	1.0916387780922694	-0.5404918966828037	0.0	1.1621155456935712	-0.5638650638992407	0.0
84	2.826666666666666	0.9678207946874056	-0.6090935342208759	0.0	0.9541205980240888	-0.6078420272532246	0.0	1.0196344198568124	-0.7277564660118008	0.0	0.9742391611448051	-0.8563043675632922	0.0	1.0178096116239148	-0.8883587427796665	0.0	1.0098357557272686	-0.888894824419452	0.0	0.9637734579941445	-0.8743762653209296	0.0	0.9873528554295502	-0.6097158964436945	0.0	1.0341226135803065	-0.7269729356838657	0.0	0.9896238168102186	-0.8505345130164899	0.0	1.0335682200270033	-0.8850211696978169	0.0	1.028399687761766	-0.8776312770043374	0.0	0.9647575086702991	-0.8660764023401246	0.0	1.0329640968011542	-0.4494081453375464	0.0	1.090651039830948	-0.38180921156931474	0.0	1.0763158347866106	-0.4305516183224225	0.0	0.996336718708693	-0.4478735671162077	0.0	1.020361446253514	-0.5029956142820134	0.0	1.086407018009077	-0.5262501091418722	0.0	1.0469705216439498	-0.4763108801710212	0.0	1.0916360547193906	-0.5380201996993039	0.0	1.163538742157694	-0.5605928784215205	0.0
85	2.86031746031746	0.9729369595906853	-0.6129811978906893	0.0	0.959195173966854	-0.6113253131578833	0.0	1.015930395564159	-0.7342453946482652	0.0	0.978256969520227	-0.864784891074313	0.0	1.022819811456932	-0.8949639045727048	0.0	1.0096577062119656	-0.8966650338443239	0.0	0.96470502990224	-0.8829326867234364	0.0	0.9919521172321684	-0.6127488544235965	0.0	1.0310509379541586	-0.7330532500105466	0.0	0.9889397043644311	-0.8582938649044575	0.0	1.0312313792950878	-0.8898115574609992	0.0	1.0303280975380589	-0.8840534920879486	0.0	0.9693622360916825	-0.8757911894308843	0.0	1.0326341750538544	-0.4477533608599463	0.0	1.0884229686818714	-0.3781836717959739	0.0	1.0786830196598314	-0.42976799239567187	0.0	0.9979397238281573	-0.4497069954956312	0.0	1.0160019266913602	-0.5048184256229324	0.0	1.0807518443261181	-0.5301082565606665	0.0	1.0466026113988796	-0.4740941540004905	0.0	1.090704212609113	-0.5366505860628701	0.0	1.1630400581286944	-0.5588462748271037	0.0
86	2.8939682539682536	0.9778470111639345	-0.6171595053663085	0.0	0.9643664426778145	-0.6153150064075757	0.0	1.0129013417140884	-0.7394594317612654	0.0	0.9799751825298593	-0.870680487188248	0.0	1.0249562857882488	-0.899999339451312	0.0	1.008851154547221	-0.9022313737421395	0.0	0.9651112897680258	-0.889141730297371	0.0	0.9964211142921523	-0.6162212718340635	0.0	1.0287991786187383	-0.737648414919551	0.0	0.9882019205892781	-0.8637510596797584	0.0	1.0292615984509603	-0.8933071535570489	0.0	1.0307630032735526	-0.8886638084343083	0.0	0.9716000675291605	-0.8825295958439483	0.0	1.031907994456621	-0.44679912887878964	0.0	1.085648425855466	-0.3756243602164745	0.0	1.0789066172541226	-0.42886153687758616	0.0	0.9982675309427473	-0.45158827326977735	0.0	1.0118008667158043	-0.5082683702455756	0.0	1.0745612884411004	-0.5365052160194445	0.0	1.045549340371751	-0.47270405630893747	0.0	1.0883046902822846	-0.5360890466773762	0.0	1.159517971316323	-0.5590608782401277	0.0
